HIERARCHY
ROOT Hips
{
  OFFSET 40.9059 100.744 -290.252
  CHANNELS 6 Xposition Yposition Zposition Zrotation Xrotation Yrotation
  JOINT ToSpine
  {
    OFFSET -0.0105055 1.38907 -7.13956
    CHANNELS 3 Zrotation Xrotation Yrotation
    JOINT Spine
    {
      OFFSET 0.0105055 10 1
      CHANNELS 3 Zrotation Xrotation Yrotation
      JOINT Spine1
      {
        OFFSET 0 12 1.60637
        CHANNELS 3 Zrotation Xrotation Yrotation
        JOINT Neck
        {
          OFFSET 0 27 2.26658
          CHANNELS 3 Zrotation Xrotation Yrotation
          JOINT Head
          {
            OFFSET 0 9 2.12705
            CHANNELS 3 Zrotation Xrotation Yrotation
            End Site
            {
              OFFSET 0 11 2
            }
          }
        }
        JOINT LeftShoulder
        {
          OFFSET 8 19.6109 2.86452
          CHANNELS 3 Zrotation Xrotation Yrotation
          JOINT LeftArm
          {
            OFFSET 12 1 0.681055
            CHANNELS 3 Zrotation Xrotation Yrotation
            JOINT LeftForeArm
            {
              OFFSET 19 0 -1.52608
              CHANNELS 3 Zrotation Xrotation Yrotation
              JOINT LeftHand
              {
                OFFSET 23 0 0
                CHANNELS 3 Zrotation Xrotation Yrotation
                End Site
                {
                  OFFSET 10 0 0
                }
              }
            }
          }
        }
        JOINT RightShoulder
        {
          OFFSET -8 19.6109 2.86452
          CHANNELS 3 Zrotation Xrotation Yrotation
          JOINT RightArm
          {
            OFFSET -12 1 0.681055
            CHANNELS 3 Zrotation Xrotation Yrotation
            JOINT RightForeArm
            {
              OFFSET -19 0 -1.52608
              CHANNELS 3 Zrotation Xrotation Yrotation
              JOINT RightHand
              {
                OFFSET -23 0 0
                CHANNELS 3 Zrotation Xrotation Yrotation
                End Site
                {
                  OFFSET -10 0 0
                }
              }
            }
          }
        }
      }
    }
  }
  JOINT LeftUpLeg
  {
    OFFSET 9 -7.17245 0
    CHANNELS 3 Zrotation Xrotation Yrotation
    JOINT LeftLeg
    {
      OFFSET 0 -44.1113 0
      CHANNELS 3 Zrotation Xrotation Yrotation
      JOINT LeftFoot
      {
        OFFSET 0 -36.1829 0
        CHANNELS 3 Zrotation Xrotation Yrotation
        JOINT LeftToeBase
        {
          OFFSET 0 -4.84184 13
          CHANNELS 3 Zrotation Xrotation Yrotation
          End Site
          {
            OFFSET 0 1 6
          }
        }
      }
    }
  }
  JOINT RightUpLeg
  {
    OFFSET -9 -7.17245 0
    CHANNELS 3 Zrotation Xrotation Yrotation
    JOINT RightLeg
    {
      OFFSET 0 -44.0551 0
      CHANNELS 3 Zrotation Xrotation Yrotation
      JOINT RightFoot
      {
        OFFSET 0 -36.1469 0
        CHANNELS 3 Zrotation Xrotation Yrotation
        JOINT RightToeBase
        {
          OFFSET 0 -4.92256 13
          CHANNELS 3 Zrotation Xrotation Yrotation
          End Site
          {
            OFFSET 0 1 6
          }
        }
      }
    }
  }
}
MOTION
Frames:	17
Frame Time:	0.0333333
40.9059 100.744 -290.252 1.79549 -3.2286 0.682796 0 0 0 -2.89406 -1.46505 0.35629 2.85709 5.8336 -0.187247 10.9843 6.29718 -2.73361 -17.1865 -7.32901 3.93509 -33.3622 3.51419 -5.39796 -45.5763 10.3875 -16.4854 -3.28859 2.37022 4.5894 -10.4784 0.805745 -8.77004 23.1284 4.96107 13.2501 54.4333 8.98142 1.18632 -1.86148 9.94484 14.2705 -1.57261 0.0118309 -0.862013 2.92165 7.53497 7.93171 -1.32075 0.340166 -9.41959 0.209274 -4.52268 0.00826389 0.0135424 -3.55057 1.03884 -2.06216 3.95514 -8.42317 0.0801757 7.33687 0.65233 -9.98218 -4.73155 -0.413448 3.37999 -11.9582 -9.56561 
40.7751 100.743 -290.266 1.48835 -2.99827 -0.122659 0 0 0 -0.688753 -1.21805 0.403916 -0.0100312 5.48421 0.416711 11.8242 5.5955 -2.7058 -16.7376 -6.03585 4.30515 -31.8586 3.43834 -5.55165 -45.6367 11.9431 -15.5424 -3.25525 1.00253 4.58583 -10.6499 0.855376 -9.15783 24.5487 5.20974 13.3172 53.8151 9.17223 1.46489 -1.5764 9.17638 14.0736 -1.42606 0.00515048 -0.413845 3.2671 7.29884 8.22379 -1.36066 0.566974 -8.64525 0.112583 -4.93618 0.00485267 0.22848 -2.75383 -0.227536 -1.73943 3.45324 -8.04719 -0.0712465 7.66735 1.03807 -8.7868 -5.21223 -0.40073 3.18565 -10.9388 -9.30365 
40.6125 100.654 -290.24 1.5878 -2.92498 -1.18049 0 0 0 0.927802 -0.39203 0.68376 -2.1636 4.45085 0.999345 4.47877 4.33791 -0.592895 -3.58755 -0.248916 1.69717 -32.1475 3.45463 -5.5259 -43.8782 14.7706 -14.3391 -3.51373 -4.65618 3.55521 -10.2506 0.502957 -5.60314 24.9511 5.51749 14.0804 53.4871 9.33845 0.816701 -1.43476 8.22946 14.3831 -1.48393 -0.00208779 0.161213 3.17067 6.26818 8.14264 -0.840983 2.97971 -6.94738 0.326451 -7.46502 0.0212967 0.60074 0.473832 -2.59958 -1.83399 3.44031 -7.77965 0.545176 7.18386 0.291685 -14.074 -2.17485 -0.268496 4.42902 -17.1618 -6.92543 
40.3923 100.595 -289.973 1.67147 -3.19533 -1.5478 0 0 0 2.38175 -0.121659 0.731474 -3.85063 4.59075 1.38507 4.39478 4.46221 -0.434318 -3.51849 -0.372353 1.81239 -31.7111 3.40458 -5.49782 -42.8457 17.8931 -13.6138 -4.06046 -7.82313 1.509 -11.7315 0.65894 -6.40733 25.4137 5.61527 14.1404 53.4863 10.0908 0.417096 -0.632969 5.09542 14.8617 -0.872818 -0.00932958 1.2248 3.06073 6.67465 8.03663 -0.55438 3.18939 -6.10728 0.475321 -7.72451 0.0320898 0.502903 0.206947 -2.14473 -1.97863 3.85645 -8.1555 1.19965 7.19896 0.921895 -17.0427 -1.43337 -0.214775 4.76925 -18.8854 -7.53793 
40.1092 100.723 -289.766 1.43078 -3.08182 -1.90794 0 0 0 3.85281 0.0735417 0.706273 -4.74738 4.35768 1.61185 4.04458 4.56412 -0.416794 -3.45292 -0.101557 1.70891 -31.9507 3.38935 -5.40155 -41.4308 21.0498 -12.4047 -4.69458 -11.9511 -1.26215 -11.7468 0.555254 -5.39364 25.1354 5.54397 14.0656 54.1137 12.5959 0.700755 2.99274 -5.06195 14.1618 1.55027 0.0269825 1.99414 3.28817 7.10541 7.92009 -0.367879 2.4039 -6.03347 -0.0397005 -7.21869 -0.00250424 0.251985 -1.02521 -0.804144 -1.71547 3.49112 -8.17064 1.03986 7.83334 0.128909 -17.0442 -3.73968 -0.560568 4.05965 -15.31 -5.13685 
39.6117 100.71 -289.64 1.47819 -3.05537 -1.92981 0 0 0 4.52597 0.400144 0.754867 -5.47352 4.24501 1.81851 3.66559 4.55802 -0.23534 -3.16647 -0.298964 1.69324 -32.1514 3.44237 -5.49307 -40.4723 22.1901 -11.3015 -4.82209 -12.9246 -3.46395 -11.8239 0.533898 -5.15248 24.6067 5.39967 13.8912 54.6292 12.2757 0.898324 2.7986 -4.01816 13.5585 3.11205 0.0753566 2.77355 3.58886 6.18619 7.76391 -0.116596 4.45297 -5.49196 0.709004 -8.29949 0.0514414 0.525192 -0.493406 -2.09937 -1.53505 3.55274 -8.22445 1.21364 7.9042 0.183171 -16.9657 -4.1341 -0.616841 3.93369 -14.7456 -4.79519 
38.9168 100.521 -289.553 1.27038 -3.06316 -2.21855 0 0 0 5.23565 1.42716 0.880005 -6.27912 3.09624 2.07839 3.72245 5.17814 -0.239251 -3.10548 -0.362516 1.71279 -31.4288 3.43433 -5.64405 -41.229 21.4819 -9.35215 -4.52881 -13.2574 -5.45112 -11.1496 0.360349 -3.69058 25.4483 5.72974 14.4762 53.6058 10.5438 0.00530112 -0.860217 6.10475 14.9532 5.67774 -0.0362455 -0.73092 4.42153 4.76847 8.02051 0.0170176 7.94182 -5.67173 0.411351 -10.1964 0.0366992 0.756977 -0.279265 -3.12288 -0.786592 3.52041 -7.82504 1.18379 8.37918 0.667327 -16.1694 -4.14207 -0.588625 4.04015 -15.3425 -7.11565 
38.2758 100.323 -289.584 0.838795 -3.00243 -1.73307 0 0 0 6.10544 1.61326 0.734829 -6.45301 3.66478 2.11044 3.55592 4.12667 -0.122377 -3.02591 0.0725341 1.73327 -31.2073 3.42556 -5.6745 -40.9079 20.3313 -9.6563 -4.2529 -12.7377 -5.42384 -11.1637 0.360513 -3.68755 25.4196 5.64027 14.2147 54.0531 12.3148 0.459328 2.56275 -3.37023 13.4546 0.198349 0.00522498 3.01791 5.49412 2.27093 7.75653 0.523697 13.0521 -5.79934 0.150099 -12.6804 0.0166777 0.790844 -0.278324 -3.26636 -0.04108 2.67015 -7.72734 1.71965 9.98794 -0.949735 -19.9677 -4.73638 -0.834234 4.3241 -16.5276 -5.71218 
37.635 99.9625 -289.784 0.0711226 -2.76576 -1.28607 0 0 0 7.44514 3.04669 0.594337 -6.82851 2.22267 2.12502 3.48324 4.28839 -0.224517 -2.81313 -0.468601 1.55331 -31.0067 3.39484 -5.64118 -40.2372 20.7405 -9.71732 -4.40321 -13.8704 -5.40675 -11.3956 0.391073 -3.91806 25.1387 5.73595 14.6632 54.3261 11.92 -0.0901343 2.23386 -2.24151 13.4689 2.65471 0.082975 3.57984 6.97063 -1.56218 6.76951 0.677882 20.1896 -5.12759 1.91567 -14.5746 0.244994 0.149375 -3.47373 0.366465 0.969579 1.29338 -7.59153 2.10741 12.4279 -1.99949 -19.9568 -6.50092 -1.14495 4.09229 -15.4276 -4.7371 
36.8526 99.536 -289.912 -0.352805 -2.89741 -0.49058 0 0 0 7.40473 4.13512 0.533465 -5.64089 2.13656 1.85009 1.18899 3.38325 0.306766 -1.69642 -0.621844 1.06018 -31.9504 3.31808 -5.21499 -39.2765 20.4304 -11.0556 -4.49213 -14.3487 -4.59511 -10.3616 0.402105 -4.43264 23.1761 5.31113 14.3883 55.455 12.0565 0.550038 2.31756 -2.5964 13.211 2.16957 0.0663993 3.50554 7.85913 -5.68157 3.24614 0.0297822 28.0858 -2.33773 2.04516 -14.0948 0.252858 0.429539 -5.87614 -0.232895 1.59808 1.33916 -7.98207 3.50119 12.9258 -1.83883 -21.9698 -4.88999 -0.949733 4.66978 -19.0243 -10.2021 
36.2694 99.4169 -290.049 -0.838312 -3.2368 0.338374 0 0 0 8.65777 6.26727 0.27819 -6.50312 0.583355 1.84555 1.67497 3.84613 0.0246074 -2.06389 -1.23704 1.0155 -32.2916 3.32344 -5.15162 -38.6512 19.7819 -10.1679 -4.0252 -13.1038 -6.46479 -10.5957 0.397485 -4.28452 24.1126 5.60192 14.8087 54.3665 11.2302 0.181846 2.09421 -1.67315 12.8143 2.33098 0.0779477 3.82997 8.42562 -9.74969 1.36159 4.06144e-008 35.775 -1.29044 1.33301 -14.2377 0.166488 0.50375 -4.13209 -1.14289 2.3539 1.56498 -7.99532 3.74499 13.2246 -2.96015 -20.3877 -5.77571 -1.03942 4.54059 -18.1683 -9.50313 
35.6366 99.3822 -290.059 -1.33369 -3.50756 1.06256 0 0 0 9.25531 7.77686 0.590617 -6.40377 -0.182533 2.22601 1.97637 3.93472 -0.537855 -2.1128 -1.74814 0.559258 -32.1831 3.44777 -5.49969 -38.9746 19.2204 -9.5694 -3.85517 -12.8791 -8.38523 -10.7455 0.382777 -4.06831 24.4078 5.49164 14.2912 53.4322 11.9333 0.37802 2.55878 -2.06851 11.8707 1.69841 0.0700851 4.72561 8.80212 -13.549 1.16392 2.09798e-008 42.4875 -1.93306 5.15235 -12.4872 0.56407 0.0383022 -4.97928 1.45302 3.37656 2.17597 -7.63807 3.48844 12.8176 -3.39178 -16.0481 -7.46488 -1.05378 3.93593 -14.7626 -4.9993 
35.1058 99.4658 -289.639 -1.29956 -3.71774 2.18292 0 0 0 8.29894 7.41198 0.564549 -3.79697 1.06058 1.67969 -1.928 3.6912 0.501298 0.604302 -2.1999 -0.259157 -35.4531 3.31462 -4.46609 -36.9472 19.5538 -8.42055 -4.02425 -13.9685 -11.847 -10.5922 0.29156 -3.14447 21.6114 5.22513 15.017 54.3726 11.9368 0.80542 2.71197 -2.1068 11.0604 1.05656 0.0380915 4.12938 8.00538 -16.4324 -0.137246 3.85033e-009 46.9538 -1.95471 9.72884 -9.53552 0.813383 0.44612 -6.54712 -0.0875798 3.93306 3.74197 -7.65701 3.42886 10.4685 -4.85974 -15.4855 -7.18787 -0.978564 3.58072 -13.2283 -4.21657 
34.7863 99.5276 -289.079 -0.6137 -4.38168 3.03131 0 0 0 8.85798 8.4587 0.799617 -5.52302 0.66632 2.3976 0.968401 4.48579 -1.07233 -1.07877 -2.58981 -0.52653 -33.7124 3.35734 -4.92657 -38.2922 19.5222 -7.71669 -3.61918 -13.0479 -12.0154 -10.4702 0.335867 -3.66442 24.0087 5.65747 15.0469 52.5355 12.1635 -0.224258 3.28775 -3.94924 10.784 1.53371 0.0506897 3.78568 6.28949 -17.511 -1.49151 -5.41961e-008 48.3593 -2.93613 8.62576 -11.0748 0.837817 -0.139123 -5.69921 2.67139 3.52168 4.70214 -8.34553 3.36485 10.8199 -6.09987 -16.9408 -9.23478 -1.37819 3.18838 -11.5376 -4.37073 
34.5399 99.5293 -288.457 -0.180183 -4.2302 3.24431 0 0 0 9.37831 8.69057 1.12154 -6.56711 0.352757 2.95617 2.06161 4.945 -1.79814 -1.18759 -2.31484 -0.851824 -32.8875 3.34775 -5.0814 -39.5301 18.2254 -6.03444 -3.47955 -12.9565 -13.5451 -10.5094 0.204849 -2.22707 24.4685 5.80797 15.2652 52.1631 12.458 0.391499 3.90089 -5.21386 8.51286 1.02425 0.0396025 4.42836 4.98255 -19.1064 -1.4277 -1.36253e-007 47.6873 -4.78944 6.76331 -10.8473 0.642879 0.541602 -6.40465 -0.652978 3.27847 4.97948 -8.60344 3.0896 11.0837 -5.75989 -15.3738 -10.1146 -1.36868 3.33621 -12.1595 -4.58247 
34.35 99.413 -287.716 0.575452 -3.77498 3.21301 0 0 0 10.2038 9.00048 1.74231 -8.42898 -0.309672 3.93747 2.464 5.16088 -2.3222 -0.925975 -2.32054 -1.28815 -32.6335 3.43588 -5.3645 -39.8082 17.4827 -5.70224 -3.19766 -12.0461 -11.7674 -10.9333 0.411666 -4.29956 24.5491 5.56984 14.463 52.7737 11.2225 0.0102671 3.01047 -2.33277 9.07475 1.92505 0.0590162 3.5116 3.16568 -20.4165 -0.949649 -2.62142e-008 45.2347 -7.9112 6.30998 -12.0701 0.667778 -0.042973 -2.63009 0.984258 2.63843 5.16817 -8.99563 3.32867 10.7774 -5.65561 -18.513 -9.1997 -1.50248 4.02662 -15.0916 -3.64846 
34.1437 99.3021 -286.919 1.21693 -3.61167 3.33397 0 0 0 10.6135 9.0273 1.84767 -9.44229 0.170296 4.24766 1.94731 4.48724 -2.32912 -0.52119 -2.0843 -1.55951 -32.8773 3.31021 -4.98765 -39.5421 17.3837 -5.85284 -3.34407 -12.5085 -9.87341 -10.5551 0.360412 -3.90027 23.685 5.44482 14.5408 53.5076 11.4355 1.13069 3.09744 -2.42657 8.81706 1.89394 0.0554082 3.35117 1.4494 -21.1719 -0.469771 -9.80135e-008 41.0272 -10.5127 6.79988 -9.44837 0.562597 0.483187 -2.21824 -1.53603 2.25549 6.04348 -9.26817 3.20048 9.93481 -4.6339 -16.9773 -8.03028 -1.20043 4.8207 -18.4145 -4.045 
